<svg xmlns="http://www.w3.org/2000/svg" width="263" height="49" viewBox="0 0 263 49"><defs><clipPath id="5d0ra"><path fill="#fff" d="M3 0h257a3 3 0 0 1 3 3v43a3 3 0 0 1-3 3H3a3 3 0 0 1-3-3V3a3 3 0 0 1 3-3z"/></clipPath></defs><g><g opacity=".4"><path fill="#8d8d8d" d="M3 0h257a3 3 0 0 1 3 3v43a3 3 0 0 1-3 3H3a3 3 0 0 1-3-3V3a3 3 0 0 1 3-3z"/><path fill="none" stroke="#4e4e5e" stroke-miterlimit="50" stroke-width="2" d="M3 0h257a3 3 0 0 1 3 3v43a3 3 0 0 1-3 3H3a3 3 0 0 1-3-3V3a3 3 0 0 1 3-3z" clip-path="url(&quot;#5d0ra&quot;)"/></g></g></svg>